<?xml version="1.0" standalone="no"?>
<svg xmlns="http://www.w3.org/2000/svg" width="500" height="500"><defs><clipPath id="clip-path-dot-color"><path d="M 18 194v 16h 16v -8a 8 8, 0, 0, 0, -8 -8" transform="rotate(-90,26,202)"/><path d="M 18 210v 16h 8a 8 8, 0, 0, 0, 0 -16" transform="rotate(90,26,218)"/><path d="M 18 274v 16h 8a 8 8, 0, 0, 0, 0 -16" transform="rotate(180,26,282)"/><circle cx="26" cy="314" r="8" transform="rotate(0,26,314)"/><path d="M 34 146v 16h 8a 8 8, 0, 0, 0, 0 -16" transform="rotate(-90,42,154)"/><path d="M 34 162v 16h 8a 8 8, 0, 0, 0, 0 -16" transform="rotate(90,42,170)"/><path d="M 34 194v 16h 8a 8 8, 0, 0, 0, 0 -16" transform="rotate(0,42,202)"/><path d="M 34 242v 16h 8a 8 8, 0, 0, 0, 0 -16" transform="rotate(180,42,250)"/><rect x="34" y="274" width="16" height="16" transform="rotate(0,42,282)"/><path d="M 34 290v 16h 8a 8 8, 0, 0, 0, 0 -16" transform="rotate(90,42,298)"/><circle cx="42" cy="330" r="8" transform="rotate(0,42,330)"/><circle cx="58" cy="186" r="8" transform="rotate(0,58,186)"/><path d="M 50 242v 16h 16v -8a 8 8, 0, 0, 0, -8 -8" transform="rotate(0,58,250)"/><rect x="50" y="258" width="16" height="16" transform="rotate(0,58,266)"/><rect x="50" y="274" width="16" height="16" transform="rotate(0,58,282)"/><circle cx="58" cy="314" r="8" transform="rotate(0,58,314)"/><path d="M 50 338v 16h 8a 8 8, 0, 0, 0, 0 -16" transform="rotate(180,58,346)"/><path d="M 66 146v 16h 8a 8 8, 0, 0, 0, 0 -16" transform="rotate(180,74,154)"/><path d="M 66 194v 16h 8a 8 8, 0, 0, 0, 0 -16" transform="rotate(-90,74,202)"/><path d="M 66 210v 16h 16v -8a 8 8, 0, 0, 0, -8 -8" transform="rotate(180,74,218)"/><rect x="66" y="274" width="16" height="16" transform="rotate(0,74,282)"/><path d="M 66 290v 16h 8a 8 8, 0, 0, 0, 0 -16" transform="rotate(90,74,298)"/><path d="M 66 322v 16h 16v -8a 8 8, 0, 0, 0, -8 -8" transform="rotate(-90,74,330)"/><path d="M 66 338v 16h 16v -8a 8 8, 0, 0, 0, -8 -8" transform="rotate(90,74,346)"/><path d="M 82 146v 16h 8a 8 8, 0, 0, 0, 0 -16" transform="rotate(0,90,154)"/><path d="M 82 178v 16h 8a 8 8, 0, 0, 0, 0 -16" transform="rotate(180,90,186)"/><rect x="82" y="210" width="16" height="16" transform="rotate(0,90,218)"/><rect x="82" y="226" width="16" height="16" transform="rotate(0,90,234)"/><path d="M 82 242v 16h 16v -8a 8 8, 0, 0, 0, -8 -8" transform="rotate(180,90,250)"/><path d="M 82 274v 16h 8a 8 8, 0, 0, 0, 0 -16" transform="rotate(0,90,282)"/><path d="M 82 306v 16h 8a 8 8, 0, 0, 0, 0 -16" transform="rotate(-90,90,314)"/><path d="M 82 322v 16h 16v -8a 8 8, 0, 0, 0, -8 -8" transform="rotate(90,90,330)"/><path d="M 98 162v 16h 8a 8 8, 0, 0, 0, 0 -16" transform="rotate(-90,106,170)"/><rect x="98" y="178" width="16" height="16" transform="rotate(0,106,186)"/><rect x="98" y="210" width="16" height="16" transform="rotate(0,106,218)"/><rect x="98" y="242" width="16" height="16" transform="rotate(0,106,250)"/><path d="M 98 258v 16h 8a 8 8, 0, 0, 0, 0 -16" transform="rotate(90,106,266)"/><circle cx="106" cy="298" r="8" transform="rotate(0,106,298)"/><path d="M 98 338v 16h 8a 8 8, 0, 0, 0, 0 -16" transform="rotate(180,106,346)"/><path d="M 114 146v 16h 8a 8 8, 0, 0, 0, 0 -16" transform="rotate(180,122,154)"/><path d="M 114 178v 16h 8a 8 8, 0, 0, 0, 0 -16" transform="rotate(0,122,186)"/><path d="M 114 210v 16h 8a 8 8, 0, 0, 0, 0 -16" transform="rotate(0,122,218)"/><rect x="114" y="242" width="16" height="16" transform="rotate(0,122,250)"/><path d="M 114 274v 16h 8a 8 8, 0, 0, 0, 0 -16" transform="rotate(180,122,282)"/><circle cx="122" cy="314" r="8" transform="rotate(0,122,314)"/><rect x="114" y="338" width="16" height="16" transform="rotate(0,122,346)"/><rect x="130" y="146" width="16" height="16" transform="rotate(0,138,154)"/><path d="M 130 194v 16h 8a 8 8, 0, 0, 0, 0 -16" transform="rotate(180,138,202)"/><path d="M 130 226v 16h 16v -8a 8 8, 0, 0, 0, -8 -8" transform="rotate(-90,138,234)"/><path d="M 130 242v 16h 16v -8a 8 8, 0, 0, 0, -8 -8" transform="rotate(90,138,250)"/><rect x="130" y="274" width="16" height="16" transform="rotate(0,138,282)"/><path d="M 130 322v 16h 8a 8 8, 0, 0, 0, 0 -16" transform="rotate(-90,138,330)"/><path d="M 130 338v 16h 16v -8a 8 8, 0, 0, 0, -8 -8" transform="rotate(90,138,346)"/><path d="M 146 34v 16h 8a 8 8, 0, 0, 0, 0 -16" transform="rotate(180,154,42)"/><path d="M 146 66v 16h 16v -8a 8 8, 0, 0, 0, -8 -8" transform="rotate(-90,154,74)"/><rect x="146" y="82" width="16" height="16" transform="rotate(0,154,90)"/><rect x="146" y="98" width="16" height="16" transform="rotate(0,154,106)"/><path d="M 146 114v 16h 8a 8 8, 0, 0, 0, 0 -16" transform="rotate(90,154,122)"/><rect x="146" y="146" width="16" height="16" transform="rotate(0,154,154)"/><rect x="146" y="194" width="16" height="16" transform="rotate(0,154,202)"/><rect x="146" y="226" width="16" height="16" transform="rotate(0,154,234)"/><path d="M 146 274v 16h 16v -8a 8 8, 0, 0, 0, -8 -8" transform="rotate(0,154,282)"/><rect x="146" y="290" width="16" height="16" transform="rotate(0,154,298)"/><path d="M 146 306v 16h 16v -8a 8 8, 0, 0, 0, -8 -8" transform="rotate(180,154,314)"/><path d="M 146 354v 16h 8a 8 8, 0, 0, 0, 0 -16" transform="rotate(-90,154,362)"/><path d="M 146 370v 16h 8a 8 8, 0, 0, 0, 0 -16" transform="rotate(90,154,378)"/><path d="M 146 402v 16h 16v -8a 8 8, 0, 0, 0, -8 -8" transform="rotate(-90,154,410)"/><path d="M 146 418v 16h 16v -8a 8 8, 0, 0, 0, -8 -8" transform="rotate(180,154,426)"/><path d="M 146 450v 16h 8a 8 8, 0, 0, 0, 0 -16" transform="rotate(180,154,458)"/><rect x="162" y="34" width="16" height="16" transform="rotate(0,170,42)"/><rect x="162" y="66" width="16" height="16" transform="rotate(0,170,74)"/><rect x="162" y="82" width="16" height="16" transform="rotate(0,170,90)"/><rect x="162" y="98" width="16" height="16" transform="rotate(0,170,106)"/><path d="M 162 130v 16h 16v -8a 8 8, 0, 0, 0, -8 -8" transform="rotate(-90,170,138)"/><rect x="162" y="146" width="16" height="16" transform="rotate(0,170,154)"/><path d="M 162 162v 16h 16v -8a 8 8, 0, 0, 0, -8 -8" transform="rotate(180,170,170)"/><path d="M 162 194v 16h 16v -8a 8 8, 0, 0, 0, -8 -8" transform="rotate(0,170,202)"/><rect x="162" y="210" width="16" height="16" transform="rotate(0,170,218)"/><rect x="162" y="226" width="16" height="16" transform="rotate(0,170,234)"/><path d="M 162 242v 16h 16v -8a 8 8, 0, 0, 0, -8 -8" transform="rotate(180,170,250)"/><path d="M 162 290v 16h 16v -8a 8 8, 0, 0, 0, -8 -8" transform="rotate(0,170,298)"/><rect x="162" y="306" width="16" height="16" transform="rotate(0,170,314)"/><path d="M 162 322v 16h 8a 8 8, 0, 0, 0, 0 -16" transform="rotate(90,170,330)"/><path d="M 162 386v 16h 16v -8a 8 8, 0, 0, 0, -8 -8" transform="rotate(-90,170,394)"/><rect x="162" y="402" width="16" height="16" transform="rotate(0,170,410)"/><path d="M 162 418v 16h 16v -8a 8 8, 0, 0, 0, -8 -8" transform="rotate(90,170,426)"/><path d="M 162 450v 16h 8a 8 8, 0, 0, 0, 0 -16" transform="rotate(0,170,458)"/><path d="M 178 34v 16h 16v -8a 8 8, 0, 0, 0, -8 -8" transform="rotate(0,186,42)"/><rect x="178" y="50" width="16" height="16" transform="rotate(0,186,58)"/><path d="M 178 66v 16h 16v -8a 8 8, 0, 0, 0, -8 -8" transform="rotate(90,186,74)"/><path d="M 178 98v 16h 16v -8a 8 8, 0, 0, 0, -8 -8" transform="rotate(0,186,106)"/><rect x="178" y="114" width="16" height="16" transform="rotate(0,186,122)"/><rect x="178" y="130" width="16" height="16" transform="rotate(0,186,138)"/><rect x="178" y="146" width="16" height="16" transform="rotate(0,186,154)"/><rect x="178" y="162" width="16" height="16" transform="rotate(0,186,170)"/><path d="M 178 178v 16h 16v -8a 8 8, 0, 0, 0, -8 -8" transform="rotate(180,186,186)"/><path d="M 178 210v 16h 16v -8a 8 8, 0, 0, 0, -8 -8" transform="rotate(0,186,218)"/><rect x="178" y="226" width="16" height="16" transform="rotate(0,186,234)"/><rect x="178" y="242" width="16" height="16" transform="rotate(0,186,250)"/><path d="M 178 258v 16h 8a 8 8, 0, 0, 0, 0 -16" transform="rotate(90,186,266)"/><path d="M 178 306v 16h 8a 8 8, 0, 0, 0, 0 -16" transform="rotate(0,186,314)"/><path d="M 178 354v 16h 8a 8 8, 0, 0, 0, 0 -16" transform="rotate(-90,186,362)"/><rect x="178" y="370" width="16" height="16" transform="rotate(0,186,378)"/><rect x="178" y="386" width="16" height="16" transform="rotate(0,186,394)"/><path d="M 178 402v 16h 16v -8a 8 8, 0, 0, 0, -8 -8" transform="rotate(90,186,410)"/><path d="M 194 18v 16h 8a 8 8, 0, 0, 0, 0 -16" transform="rotate(180,202,26)"/><circle cx="202" cy="90" r="8" transform="rotate(0,202,90)"/><path d="M 194 146v 16h 16v -8a 8 8, 0, 0, 0, -8 -8" transform="rotate(0,202,154)"/><rect x="194" y="162" width="16" height="16" transform="rotate(0,202,170)"/><path d="M 194 178v 16h 16v -8a 8 8, 0, 0, 0, -8 -8" transform="rotate(90,202,186)"/><path d="M 194 226v 16h 8a 8 8, 0, 0, 0, 0 -16" transform="rotate(0,202,234)"/><circle cx="202" cy="298" r="8" transform="rotate(0,202,298)"/><path d="M 194 322v 16h 8a 8 8, 0, 0, 0, 0 -16" transform="rotate(180,202,330)"/><path d="M 194 418v 16h 8a 8 8, 0, 0, 0, 0 -16" transform="rotate(180,202,426)"/><circle cx="202" cy="474" r="8" transform="rotate(0,202,474)"/><rect x="210" y="18" width="16" height="16" transform="rotate(0,218,26)"/><circle cx="218" cy="58" r="8" transform="rotate(0,218,58)"/><circle cx="218" cy="122" r="8" transform="rotate(0,218,122)"/><path d="M 210 162v 16h 8a 8 8, 0, 0, 0, 0 -16" transform="rotate(0,218,170)"/><path d="M 210 210v 16h 8a 8 8, 0, 0, 0, 0 -16" transform="rotate(180,218,218)"/><path d="M 210 242v 16h 8a 8 8, 0, 0, 0, 0 -16" transform="rotate(180,218,250)"/><path d="M 210 274v 16h 8a 8 8, 0, 0, 0, 0 -16" transform="rotate(180,218,282)"/><path d="M 210 306v 16h 16v -8a 8 8, 0, 0, 0, -8 -8" transform="rotate(-90,218,314)"/><rect x="210" y="322" width="16" height="16" transform="rotate(0,218,330)"/><rect x="210" y="338" width="16" height="16" transform="rotate(0,218,346)"/><rect x="210" y="354" width="16" height="16" transform="rotate(0,218,362)"/><path d="M 210 370v 16h 16v -8a 8 8, 0, 0, 0, -8 -8" transform="rotate(180,218,378)"/><path d="M 210 418v 16h 8a 8 8, 0, 0, 0, 0 -16" transform="rotate(0,218,426)"/><circle cx="218" cy="458" r="8" transform="rotate(0,218,458)"/><path d="M 226 18v 16h 8a 8 8, 0, 0, 0, 0 -16" transform="rotate(0,234,26)"/><path d="M 226 82v 16h 16v -8a 8 8, 0, 0, 0, -8 -8" transform="rotate(-90,234,90)"/><path d="M 226 98v 16h 16v -8a 8 8, 0, 0, 0, -8 -8" transform="rotate(180,234,106)"/><circle cx="234" cy="154" r="8" transform="rotate(0,234,154)"/><path d="M 226 178v 16h 8a 8 8, 0, 0, 0, 0 -16" transform="rotate(-90,234,186)"/><rect x="226" y="194" width="16" height="16" transform="rotate(0,234,202)"/><rect x="226" y="210" width="16" height="16" transform="rotate(0,234,218)"/><path d="M 226 242v 16h 8a 8 8, 0, 0, 0, 0 -16" transform="rotate(0,234,250)"/><path d="M 226 274v 16h 16v -8a 8 8, 0, 0, 0, -8 -8" transform="rotate(0,234,282)"/><rect x="226" y="290" width="16" height="16" transform="rotate(0,234,298)"/><path d="M 226 306v 16h 16v -8a 8 8, 0, 0, 0, -8 -8" transform="rotate(90,234,314)"/><path d="M 226 370v 16h 8a 8 8, 0, 0, 0, 0 -16" transform="rotate(0,234,378)"/><circle cx="234" cy="410" r="8" transform="rotate(0,234,410)"/><circle cx="234" cy="442" r="8" transform="rotate(0,234,442)"/><path d="M 226 466v 16h 8a 8 8, 0, 0, 0, 0 -16" transform="rotate(180,234,474)"/><path d="M 242 34v 16h 8a 8 8, 0, 0, 0, 0 -16" transform="rotate(180,250,42)"/><rect x="242" y="82" width="16" height="16" transform="rotate(0,250,90)"/><rect x="242" y="98" width="16" height="16" transform="rotate(0,250,106)"/><path d="M 242 114v 16h 8a 8 8, 0, 0, 0, 0 -16" transform="rotate(90,250,122)"/><rect x="242" y="210" width="16" height="16" transform="rotate(0,250,218)"/><circle cx="250" cy="266" r="8" transform="rotate(0,250,266)"/><path d="M 242 290v 16h 8a 8 8, 0, 0, 0, 0 -16" transform="rotate(0,250,298)"/><circle cx="250" cy="330" r="8" transform="rotate(0,250,330)"/><path d="M 242 354v 16h 8a 8 8, 0, 0, 0, 0 -16" transform="rotate(180,250,362)"/><circle cx="250" cy="394" r="8" transform="rotate(0,250,394)"/><path d="M 242 418v 16h 8a 8 8, 0, 0, 0, 0 -16" transform="rotate(180,250,426)"/><rect x="242" y="466" width="16" height="16" transform="rotate(0,250,474)"/><path d="M 258 18v 16h 8a 8 8, 0, 0, 0, 0 -16" transform="rotate(-90,266,26)"/><rect x="258" y="34" width="16" height="16" transform="rotate(0,266,42)"/><path d="M 258 50v 16h 8a 8 8, 0, 0, 0, 0 -16" transform="rotate(90,266,58)"/><rect x="258" y="82" width="16" height="16" transform="rotate(0,266,90)"/><rect x="258" y="98" width="16" height="16" transform="rotate(0,266,106)"/><circle cx="266" cy="138" r="8" transform="rotate(0,266,138)"/><path d="M 258 162v 16h 8a 8 8, 0, 0, 0, 0 -16" transform="rotate(180,266,170)"/><path d="M 258 194v 16h 16v -8a 8 8, 0, 0, 0, -8 -8" transform="rotate(-90,266,202)"/><rect x="258" y="210" width="16" height="16" transform="rotate(0,266,218)"/><rect x="258" y="226" width="16" height="16" transform="rotate(0,266,234)"/><path d="M 258 242v 16h 8a 8 8, 0, 0, 0, 0 -16" transform="rotate(90,266,250)"/><path d="M 258 354v 16h 16v -8a 8 8, 0, 0, 0, -8 -8" transform="rotate(0,266,362)"/><path d="M 258 370v 16h 8a 8 8, 0, 0, 0, 0 -16" transform="rotate(90,266,378)"/><path d="M 258 402v 16h 8a 8 8, 0, 0, 0, 0 -16" transform="rotate(-90,266,410)"/><rect x="258" y="418" width="16" height="16" transform="rotate(0,266,426)"/><rect x="258" y="434" width="16" height="16" transform="rotate(0,266,442)"/><rect x="258" y="450" width="16" height="16" transform="rotate(0,266,458)"/><path d="M 258 466v 16h 16v -8a 8 8, 0, 0, 0, -8 -8" transform="rotate(90,266,474)"/><path d="M 274 66v 16h 16v -8a 8 8, 0, 0, 0, -8 -8" transform="rotate(-90,282,74)"/><rect x="274" y="82" width="16" height="16" transform="rotate(0,282,90)"/><rect x="274" y="98" width="16" height="16" transform="rotate(0,282,106)"/><path d="M 274 114v 16h 8a 8 8, 0, 0, 0, 0 -16" transform="rotate(90,282,122)"/><path d="M 274 146v 16h 8a 8 8, 0, 0, 0, 0 -16" transform="rotate(-90,282,154)"/><rect x="274" y="162" width="16" height="16" transform="rotate(0,282,170)"/><rect x="274" y="178" width="16" height="16" transform="rotate(0,282,186)"/><rect x="274" y="194" width="16" height="16" transform="rotate(0,282,202)"/><rect x="274" y="210" width="16" height="16" transform="rotate(0,282,218)"/><rect x="274" y="226" width="16" height="16" transform="rotate(0,282,234)"/><path d="M 274 290v 16h 8a 8 8, 0, 0, 0, 0 -16" transform="rotate(-90,282,298)"/><rect x="274" y="306" width="16" height="16" transform="rotate(0,282,314)"/><rect x="274" y="322" width="16" height="16" transform="rotate(0,282,330)"/><path d="M 274 338v 16h 16v -8a 8 8, 0, 0, 0, -8 -8" transform="rotate(180,282,346)"/><circle cx="282" cy="394" r="8" transform="rotate(0,282,394)"/><rect x="274" y="418" width="16" height="16" transform="rotate(0,282,426)"/><path d="M 274 450v 16h 8a 8 8, 0, 0, 0, 0 -16" transform="rotate(0,282,458)"/><path d="M 290 18v 16h 8a 8 8, 0, 0, 0, 0 -16" transform="rotate(180,298,26)"/><rect x="290" y="66" width="16" height="16" transform="rotate(0,298,74)"/><rect x="290" y="82" width="16" height="16" transform="rotate(0,298,90)"/><rect x="290" y="98" width="16" height="16" transform="rotate(0,298,106)"/><rect x="290" y="178" width="16" height="16" transform="rotate(0,298,186)"/><path d="M 290 210v 16h 16v -8a 8 8, 0, 0, 0, -8 -8" transform="rotate(0,298,218)"/><rect x="290" y="226" width="16" height="16" transform="rotate(0,298,234)"/><path d="M 290 306v 16h 16v -8a 8 8, 0, 0, 0, -8 -8" transform="rotate(0,298,314)"/><rect x="290" y="322" width="16" height="16" transform="rotate(0,298,330)"/><rect x="290" y="338" width="16" height="16" transform="rotate(0,298,346)"/><path d="M 290 402v 16h 16v -8a 8 8, 0, 0, 0, -8 -8" transform="rotate(-90,298,410)"/><rect x="290" y="418" width="16" height="16" transform="rotate(0,298,426)"/><path d="M 290 434v 16h 16v -8a 8 8, 0, 0, 0, -8 -8" transform="rotate(180,298,442)"/><rect x="306" y="18" width="16" height="16" transform="rotate(0,314,26)"/><rect x="306" y="34" width="16" height="16" transform="rotate(0,314,42)"/><rect x="306" y="50" width="16" height="16" transform="rotate(0,314,58)"/><rect x="306" y="66" width="16" height="16" transform="rotate(0,314,74)"/><rect x="306" y="82" width="16" height="16" transform="rotate(0,314,90)"/><rect x="306" y="98" width="16" height="16" transform="rotate(0,314,106)"/><rect x="306" y="114" width="16" height="16" transform="rotate(0,314,122)"/><path d="M 306 130v 16h 16v -8a 8 8, 0, 0, 0, -8 -8" transform="rotate(180,314,138)"/><path d="M 306 162v 16h 16v -8a 8 8, 0, 0, 0, -8 -8" transform="rotate(-90,314,170)"/><rect x="306" y="178" width="16" height="16" transform="rotate(0,314,186)"/><path d="M 306 194v 16h 8a 8 8, 0, 0, 0, 0 -16" transform="rotate(90,314,202)"/><rect x="306" y="226" width="16" height="16" transform="rotate(0,314,234)"/><path d="M 306 242v 16h 8a 8 8, 0, 0, 0, 0 -16" transform="rotate(90,314,250)"/><path d="M 306 274v 16h 8a 8 8, 0, 0, 0, 0 -16" transform="rotate(180,314,282)"/><path d="M 306 322v 16h 16v -8a 8 8, 0, 0, 0, -8 -8" transform="rotate(0,314,330)"/><path d="M 306 338v 16h 16v -8a 8 8, 0, 0, 0, -8 -8" transform="rotate(90,314,346)"/><path d="M 306 386v 16h 16v -8a 8 8, 0, 0, 0, -8 -8" transform="rotate(-90,314,394)"/><path d="M 306 402v 16h 16v -8a 8 8, 0, 0, 0, -8 -8" transform="rotate(90,314,410)"/><rect x="306" y="434" width="16" height="16" transform="rotate(0,314,442)"/><circle cx="314" cy="474" r="8" transform="rotate(0,314,474)"/><rect x="322" y="18" width="16" height="16" transform="rotate(0,330,26)"/><rect x="322" y="34" width="16" height="16" transform="rotate(0,330,42)"/><rect x="322" y="50" width="16" height="16" transform="rotate(0,330,58)"/><path d="M 322 130v 16h 8a 8 8, 0, 0, 0, 0 -16" transform="rotate(0,330,138)"/><rect x="322" y="162" width="16" height="16" transform="rotate(0,330,170)"/><path d="M 322 226v 16h 8a 8 8, 0, 0, 0, 0 -16" transform="rotate(0,330,234)"/><path d="M 322 258v 16h 8a 8 8, 0, 0, 0, 0 -16" transform="rotate(-90,330,266)"/><rect x="322" y="274" width="16" height="16" transform="rotate(0,330,282)"/><circle cx="330" cy="314" r="8" transform="rotate(0,330,314)"/><path d="M 322 354v 16h 16v -8a 8 8, 0, 0, 0, -8 -8" transform="rotate(-90,330,362)"/><rect x="322" y="370" width="16" height="16" transform="rotate(0,330,378)"/><rect x="322" y="386" width="16" height="16" transform="rotate(0,330,394)"/><rect x="322" y="434" width="16" height="16" transform="rotate(0,330,442)"/><path d="M 322 450v 16h 8a 8 8, 0, 0, 0, 0 -16" transform="rotate(90,330,458)"/><path d="M 338 18v 16h 16v -8a 8 8, 0, 0, 0, -8 -8" transform="rotate(0,346,26)"/><rect x="338" y="34" width="16" height="16" transform="rotate(0,346,42)"/><rect x="338" y="50" width="16" height="16" transform="rotate(0,346,58)"/><path d="M 338 66v 16h 8a 8 8, 0, 0, 0, 0 -16" transform="rotate(90,346,74)"/><path d="M 338 98v 16h 8a 8 8, 0, 0, 0, 0 -16" transform="rotate(-90,346,106)"/><path d="M 338 114v 16h 8a 8 8, 0, 0, 0, 0 -16" transform="rotate(90,346,122)"/><path d="M 338 146v 16h 16v -8a 8 8, 0, 0, 0, -8 -8" transform="rotate(-90,346,154)"/><rect x="338" y="162" width="16" height="16" transform="rotate(0,346,170)"/><path d="M 338 178v 16h 8a 8 8, 0, 0, 0, 0 -16" transform="rotate(90,346,186)"/><circle cx="346" cy="218" r="8" transform="rotate(0,346,218)"/><path d="M 338 274v 16h 16v -8a 8 8, 0, 0, 0, -8 -8" transform="rotate(0,346,282)"/><path d="M 338 290v 16h 16v -8a 8 8, 0, 0, 0, -8 -8" transform="rotate(180,346,298)"/><path d="M 338 338v 16h 16v -8a 8 8, 0, 0, 0, -8 -8" transform="rotate(-90,346,346)"/><rect x="338" y="354" width="16" height="16" transform="rotate(0,346,362)"/><rect x="338" y="370" width="16" height="16" transform="rotate(0,346,378)"/><rect x="338" y="386" width="16" height="16" transform="rotate(0,346,394)"/><rect x="338" y="402" width="16" height="16" transform="rotate(0,346,410)"/><rect x="338" y="418" width="16" height="16" transform="rotate(0,346,426)"/><rect x="338" y="434" width="16" height="16" transform="rotate(0,346,442)"/><path d="M 354 146v 16h 16v -8a 8 8, 0, 0, 0, -8 -8" transform="rotate(0,362,154)"/><rect x="354" y="162" width="16" height="16" transform="rotate(0,362,170)"/><circle cx="362" cy="202" r="8" transform="rotate(0,362,202)"/><circle cx="362" cy="234" r="8" transform="rotate(0,362,234)"/><path d="M 354 258v 16h 8a 8 8, 0, 0, 0, 0 -16" transform="rotate(180,362,266)"/><path d="M 354 290v 16h 16v -8a 8 8, 0, 0, 0, -8 -8" transform="rotate(0,362,298)"/><path d="M 354 306v 16h 8a 8 8, 0, 0, 0, 0 -16" transform="rotate(90,362,314)"/><rect x="354" y="338" width="16" height="16" transform="rotate(0,362,346)"/><rect x="354" y="402" width="16" height="16" transform="rotate(0,362,410)"/><rect x="354" y="418" width="16" height="16" transform="rotate(0,362,426)"/><rect x="354" y="434" width="16" height="16" transform="rotate(0,362,442)"/><rect x="370" y="162" width="16" height="16" transform="rotate(0,378,170)"/><path d="M 370 178v 16h 8a 8 8, 0, 0, 0, 0 -16" transform="rotate(90,378,186)"/><circle cx="378" cy="218" r="8" transform="rotate(0,378,218)"/><path d="M 370 242v 16h 8a 8 8, 0, 0, 0, 0 -16" transform="rotate(-90,378,250)"/><rect x="370" y="258" width="16" height="16" transform="rotate(0,378,266)"/><path d="M 370 274v 16h 16v -8a 8 8, 0, 0, 0, -8 -8" transform="rotate(180,378,282)"/><path d="M 370 322v 16h 16v -8a 8 8, 0, 0, 0, -8 -8" transform="rotate(-90,378,330)"/><rect x="370" y="338" width="16" height="16" transform="rotate(0,378,346)"/><circle cx="378" cy="378" r="8" transform="rotate(0,378,378)"/><rect x="370" y="402" width="16" height="16" transform="rotate(0,378,410)"/><path d="M 370 434v 16h 8a 8 8, 0, 0, 0, 0 -16" transform="rotate(0,378,442)"/><path d="M 386 146v 16h 16v -8a 8 8, 0, 0, 0, -8 -8" transform="rotate(-90,394,154)"/><path d="M 386 162v 16h 16v -8a 8 8, 0, 0, 0, -8 -8" transform="rotate(90,394,170)"/><path d="M 386 226v 16h 8a 8 8, 0, 0, 0, 0 -16" transform="rotate(180,394,234)"/><rect x="386" y="258" width="16" height="16" transform="rotate(0,394,266)"/><path d="M 386 274v 16h 16v -8a 8 8, 0, 0, 0, -8 -8" transform="rotate(90,394,282)"/><path d="M 386 306v 16h 8a 8 8, 0, 0, 0, 0 -16" transform="rotate(-90,394,314)"/><rect x="386" y="322" width="16" height="16" transform="rotate(0,394,330)"/><rect x="386" y="338" width="16" height="16" transform="rotate(0,394,346)"/><rect x="386" y="402" width="16" height="16" transform="rotate(0,394,410)"/><path d="M 386 418v 16h 8a 8 8, 0, 0, 0, 0 -16" transform="rotate(90,394,426)"/><path d="M 386 450v 16h 8a 8 8, 0, 0, 0, 0 -16" transform="rotate(-90,394,458)"/><path d="M 386 466v 16h 16v -8a 8 8, 0, 0, 0, -8 -8" transform="rotate(180,394,474)"/><rect x="402" y="146" width="16" height="16" transform="rotate(0,410,154)"/><path d="M 402 178v 16h 16v -8a 8 8, 0, 0, 0, -8 -8" transform="rotate(-90,410,186)"/><rect x="402" y="194" width="16" height="16" transform="rotate(0,410,202)"/><rect x="402" y="210" width="16" height="16" transform="rotate(0,410,218)"/><path d="M 402 226v 16h 16v -8a 8 8, 0, 0, 0, -8 -8" transform="rotate(90,410,234)"/><path d="M 402 258v 16h 8a 8 8, 0, 0, 0, 0 -16" transform="rotate(0,410,266)"/><path d="M 402 290v 16h 8a 8 8, 0, 0, 0, 0 -16" transform="rotate(180,410,298)"/><path d="M 402 322v 16h 16v -8a 8 8, 0, 0, 0, -8 -8" transform="rotate(0,410,330)"/><rect x="402" y="338" width="16" height="16" transform="rotate(0,410,346)"/><rect x="402" y="354" width="16" height="16" transform="rotate(0,410,362)"/><rect x="402" y="370" width="16" height="16" transform="rotate(0,410,378)"/><rect x="402" y="386" width="16" height="16" transform="rotate(0,410,394)"/><path d="M 402 402v 16h 16v -8a 8 8, 0, 0, 0, -8 -8" transform="rotate(90,410,410)"/><path d="M 402 466v 16h 8a 8 8, 0, 0, 0, 0 -16" transform="rotate(0,410,474)"/><path d="M 418 146v 16h 8a 8 8, 0, 0, 0, 0 -16" transform="rotate(0,426,154)"/><rect x="418" y="178" width="16" height="16" transform="rotate(0,426,186)"/><rect x="418" y="194" width="16" height="16" transform="rotate(0,426,202)"/><path d="M 418 210v 16h 16v -8a 8 8, 0, 0, 0, -8 -8" transform="rotate(90,426,218)"/><path d="M 418 242v 16h 8a 8 8, 0, 0, 0, 0 -16" transform="rotate(180,426,250)"/><rect x="418" y="290" width="16" height="16" transform="rotate(0,426,298)"/><path d="M 418 306v 16h 8a 8 8, 0, 0, 0, 0 -16" transform="rotate(90,426,314)"/><rect x="418" y="386" width="16" height="16" transform="rotate(0,426,394)"/><path d="M 418 418v 16h 8a 8 8, 0, 0, 0, 0 -16" transform="rotate(-90,426,426)"/><rect x="418" y="434" width="16" height="16" transform="rotate(0,426,442)"/><path d="M 418 450v 16h 16v -8a 8 8, 0, 0, 0, -8 -8" transform="rotate(180,426,458)"/><path d="M 434 178v 16h 16v -8a 8 8, 0, 0, 0, -8 -8" transform="rotate(0,442,186)"/><rect x="434" y="194" width="16" height="16" transform="rotate(0,442,202)"/><path d="M 434 226v 16h 8a 8 8, 0, 0, 0, 0 -16" transform="rotate(-90,442,234)"/><rect x="434" y="242" width="16" height="16" transform="rotate(0,442,250)"/><path d="M 434 258v 16h 8a 8 8, 0, 0, 0, 0 -16" transform="rotate(90,442,266)"/><path d="M 434 290v 16h 8a 8 8, 0, 0, 0, 0 -16" transform="rotate(0,442,298)"/><path d="M 434 338v 16h 8a 8 8, 0, 0, 0, 0 -16" transform="rotate(-90,442,346)"/><path d="M 434 354v 16h 8a 8 8, 0, 0, 0, 0 -16" transform="rotate(90,442,362)"/><path d="M 434 386v 16h 16v -8a 8 8, 0, 0, 0, -8 -8" transform="rotate(0,442,394)"/><path d="M 434 402v 16h 16v -8a 8 8, 0, 0, 0, -8 -8" transform="rotate(180,442,410)"/><path d="M 434 450v 16h 16v -8a 8 8, 0, 0, 0, -8 -8" transform="rotate(0,442,458)"/><path d="M 434 466v 16h 16v -8a 8 8, 0, 0, 0, -8 -8" transform="rotate(180,442,474)"/><path d="M 450 146v 16h 8a 8 8, 0, 0, 0, 0 -16" transform="rotate(-90,458,154)"/><path d="M 450 162v 16h 8a 8 8, 0, 0, 0, 0 -16" transform="rotate(90,458,170)"/><rect x="450" y="194" width="16" height="16" transform="rotate(0,458,202)"/><circle cx="458" cy="282" r="8" transform="rotate(0,458,282)"/><rect x="450" y="402" width="16" height="16" transform="rotate(0,458,410)"/><rect x="450" y="418" width="16" height="16" transform="rotate(0,458,426)"/><path d="M 450 434v 16h 8a 8 8, 0, 0, 0, 0 -16" transform="rotate(90,458,442)"/><path d="M 450 466v 16h 8a 8 8, 0, 0, 0, 0 -16" transform="rotate(0,458,474)"/><path d="M 466 194v 16h 8a 8 8, 0, 0, 0, 0 -16" transform="rotate(0,474,202)"/><circle cx="474" cy="234" r="8" transform="rotate(0,474,234)"/><circle cx="474" cy="266" r="8" transform="rotate(0,474,266)"/><circle cx="474" cy="346" r="8" transform="rotate(0,474,346)"/><path d="M 466 370v 16h 8a 8 8, 0, 0, 0, 0 -16" transform="rotate(-90,474,378)"/><rect x="466" y="386" width="16" height="16" transform="rotate(0,474,394)"/><path d="M 466 402v 16h 16v -8a 8 8, 0, 0, 0, -8 -8" transform="rotate(90,474,410)"/></clipPath><clipPath id="clip-path-corners-square-color-0-0"><path clip-rule="evenodd" d="M 18 58v 32a 40 40, 0, 0, 0, 40 40h 32a 40 40, 0, 0, 0, 40 -40v -32a 40 40, 0, 0, 0, -40 -40h -32a 40 40, 0, 0, 0, -40 40M 58 34h 32a 24 24, 0, 0, 1, 24 24v 32a 24 24, 0, 0, 1, -24 24h -32a 24 24, 0, 0, 1, -24 -24v -32a 24 24, 0, 0, 1, 24 -24" transform="rotate(0,74,74)"/></clipPath><clipPath id="clip-path-corners-dot-color-0-0"><circle cx="74" cy="74" r="24" transform="rotate(0,74,74)"/></clipPath><clipPath id="clip-path-corners-square-color-1-0"><path clip-rule="evenodd" d="M 370 58v 32a 40 40, 0, 0, 0, 40 40h 32a 40 40, 0, 0, 0, 40 -40v -32a 40 40, 0, 0, 0, -40 -40h -32a 40 40, 0, 0, 0, -40 40M 410 34h 32a 24 24, 0, 0, 1, 24 24v 32a 24 24, 0, 0, 1, -24 24h -32a 24 24, 0, 0, 1, -24 -24v -32a 24 24, 0, 0, 1, 24 -24" transform="rotate(90,426,74)"/></clipPath><clipPath id="clip-path-corners-dot-color-1-0"><circle cx="426" cy="74" r="24" transform="rotate(90,426,74)"/></clipPath><clipPath id="clip-path-corners-square-color-0-1"><path clip-rule="evenodd" d="M 18 410v 32a 40 40, 0, 0, 0, 40 40h 32a 40 40, 0, 0, 0, 40 -40v -32a 40 40, 0, 0, 0, -40 -40h -32a 40 40, 0, 0, 0, -40 40M 58 386h 32a 24 24, 0, 0, 1, 24 24v 32a 24 24, 0, 0, 1, -24 24h -32a 24 24, 0, 0, 1, -24 -24v -32a 24 24, 0, 0, 1, 24 -24" transform="rotate(-90,74,426)"/></clipPath><clipPath id="clip-path-corners-dot-color-0-1"><circle cx="74" cy="426" r="24" transform="rotate(-90,74,426)"/></clipPath></defs><rect x="0" y="0" height="500" width="500" clip-path="url('#clip-path-background-color')" fill="#fff"/><rect x="0" y="0" height="500" width="500" clip-path="url('#clip-path-dot-color')" fill="#000000"/><rect x="18" y="18" height="112" width="112" clip-path="url('#clip-path-corners-square-color-0-0')" fill="#000000"/><rect x="50" y="50" height="48" width="48" clip-path="url('#clip-path-corners-dot-color-0-0')" fill="#000000"/><rect x="370" y="18" height="112" width="112" clip-path="url('#clip-path-corners-square-color-1-0')" fill="#000000"/><rect x="402" y="50" height="48" width="48" clip-path="url('#clip-path-corners-dot-color-1-0')" fill="#000000"/><rect x="18" y="370" height="112" width="112" clip-path="url('#clip-path-corners-square-color-0-1')" fill="#000000"/><rect x="50" y="402" height="48" width="48" clip-path="url('#clip-path-corners-dot-color-0-1')" fill="#000000"/></svg>